<?xml version="1.0" standalone="no"?>
<!DOCTYPE svg PUBLIC "-//W3C//DTD SVG 20010904//EN"
 "http://www.w3.org/TR/2001/REC-SVG-20010904/DTD/svg10.dtd">
<svg version="1.0" xmlns="http://www.w3.org/2000/svg"
 width="920.000000pt" height="483.000000pt" viewBox="0 0 920.000000 483.000000"
 preserveAspectRatio="xMidYMid meet">
<metadata>
Created by potrace 1.16, written by Peter Selinger 2001-2019
</metadata>
<g transform="translate(0.000000,483.000000) scale(0.100000,-0.100000)"
fill="#000000" stroke="none">
<path d="M4541 4815 c-65 -29 -291 -205 -450 -353 l-75 -68 95 -50 c134 -72
268 -156 387 -245 l102 -78 103 78 c117 88 252 173 386 244 l93 50 -73 69
c-153 143 -387 326 -452 353 -45 19 -72 18 -116 0z"/>
<path d="M3544 4231 c-75 -34 -281 -332 -405 -585 -33 -65 -59 -124 -59 -131
0 -6 35 -19 78 -29 122 -29 348 -104 457 -153 l100 -44 25 29 c192 224 332
360 502 490 l87 67 -27 22 c-93 74 -348 217 -524 292 -143 62 -179 68 -234 42z"/>
<path d="M5525 4231 c-175 -64 -428 -196 -583 -304 l-73 -51 28 -21 c188 -136
356 -297 560 -533 l28 -33 101 44 c111 50 382 140 476 158 57 11 59 13 53 38
-10 38 -119 251 -176 344 -53 86 -178 259 -226 314 -32 36 -82 63 -115 63 -13
-1 -45 -9 -73 -19z"/>
<path d="M4538 3672 c-93 -49 -340 -264 -481 -420 l-87 -97 27 -20 c14 -11 61
-45 102 -76 42 -31 107 -85 144 -119 l68 -63 37 22 c177 107 345 105 513 -5
l26 -17 92 81 c51 45 128 107 172 138 l79 56 -52 61 c-119 138 -344 343 -473
432 -65 45 -116 53 -167 27z"/>
<path d="M2863 3220 c-45 -27 -57 -50 -96 -180 -59 -194 -117 -520 -93 -520 4
0 65 -9 135 -20 232 -36 545 -113 735 -182 l111 -39 50 58 c84 98 216 232 299
301 l78 67 -53 48 c-221 196 -575 370 -934 458 -140 34 -188 36 -232 9z"/>
<path d="M6101 3210 c-349 -90 -650 -232 -877 -414 -118 -95 -116 -83 -26
-159 81 -69 227 -216 302 -305 l45 -54 111 40 c197 70 518 149 763 187 l114
18 -7 75 c-14 165 -104 524 -147 584 -47 66 -107 72 -278 28z"/>
<path d="M4529 2677 c-64 -34 -217 -146 -314 -228 -90 -76 -291 -276 -284
-282 2 -3 71 -37 153 -76 164 -78 333 -170 438 -238 36 -24 71 -43 77 -43 6 0
41 19 78 43 112 71 279 162 438 238 83 39 152 73 154 76 8 7 -189 201 -293
289 -55 46 -150 118 -211 160 -133 90 -166 98 -236 61z"/>
<path d="M2549 2217 c-58 -38 -69 -74 -69 -223 0 -713 401 -1367 1061 -1728
l66 -36 7 97 c17 250 121 473 335 724 117 138 323 322 480 428 33 23 61 45 61
49 0 9 -178 124 -310 199 -406 233 -897 408 -1370 487 -187 32 -218 32 -261 3z"/>
<path d="M6415 2220 c-481 -80 -965 -250 -1380 -484 -137 -77 -325 -198 -325
-208 0 -4 26 -25 59 -47 162 -110 373 -299 489 -436 211 -250 323 -500 326
-723 0 -50 3 -92 6 -92 13 0 190 106 265 158 305 211 554 506 698 829 113 250
167 502 167 775 0 140 -9 176 -54 217 -35 32 -105 36 -251 11z"/>
<path d="M4495 1179 c-193 -150 -361 -325 -463 -482 -94 -147 -152 -341 -137
-460 10 -76 26 -127 44 -136 27 -14 231 -60 336 -76 151 -23 372 -30 510 -16
184 18 463 75 487 99 5 5 16 44 25 87 46 230 -79 499 -367 785 -115 115 -307
270 -332 270 -7 -1 -53 -32 -103 -71z"/>
</g>
</svg>
