<svg width="23" height="22" viewBox="0 0 23 22" fill="none" xmlns="http://www.w3.org/2000/svg">
<path d="M15.8823 7.02539C17.4736 7.02539 18.9997 7.66021 20.1249 8.7902C21.2502 9.9202 21.8823 11.4528 21.8823 13.0508V20.0805H17.8823V13.0508C17.8823 12.5182 17.6716 12.0073 17.2965 11.6306C16.9214 11.254 16.4127 11.0424 15.8823 11.0424C15.3519 11.0424 14.8432 11.254 14.4681 11.6306C14.093 12.0073 13.8823 12.5182 13.8823 13.0508V20.0805H9.88229V13.0508C9.88229 11.4528 10.5144 9.9202 11.6397 8.7902C12.7649 7.66021 14.291 7.02539 15.8823 7.02539Z" stroke="black" stroke-width="2" stroke-linecap="round" stroke-linejoin="round"/>
<path d="M5.88229 8.02979H1.88229V20.0807H5.88229V8.02979Z" stroke="black" stroke-width="2" stroke-linecap="round" stroke-linejoin="round"/>
<path d="M3.88229 5.01697C4.98686 5.01697 5.88229 4.11774 5.88229 3.00848C5.88229 1.89923 4.98686 1 3.88229 1C2.77772 1 1.88229 1.89923 1.88229 3.00848C1.88229 4.11774 2.77772 5.01697 3.88229 5.01697Z" stroke="black" stroke-width="2" stroke-linecap="round" stroke-linejoin="round"/>
</svg>
