<svg width="20" height="20" viewBox="0 0 20 20" fill="none" xmlns="http://www.w3.org/2000/svg">
<path d="M10 4.86081C8.98447 4.86081 7.99174 5.16167 7.14735 5.72534C6.30297 6.28901 5.64485 7.09017 5.25622 8.02752C4.8676 8.96487 4.76591 9.99631 4.96403 10.9914C5.16215 11.9865 5.65118 12.9005 6.36927 13.6179C7.08736 14.3354 8.00226 14.8239 8.99828 15.0219C9.9943 15.2198 11.0267 15.1182 11.9649 14.7299C12.9032 14.3417 13.7051 13.6842 14.2693 12.8406C14.8335 11.997 15.1346 11.0052 15.1346 9.99062C15.1363 9.3165 15.0046 8.64869 14.7471 8.02557C14.4897 7.40245 14.1115 6.83629 13.6344 6.35961C13.1573 5.88294 12.5906 5.50514 11.9669 5.24793C11.3432 4.99072 10.6748 4.85916 10 4.86081ZM10 13.3312C9.33867 13.3312 8.69218 13.1353 8.1423 12.7682C7.59242 12.4012 7.16384 11.8794 6.91076 11.269C6.65768 10.6586 6.59146 9.98691 6.72048 9.33889C6.8495 8.69087 7.16796 8.09563 7.6356 7.62843C8.10323 7.16124 8.69904 6.84307 9.34766 6.71417C9.99629 6.58527 10.6686 6.65143 11.2796 6.90427C11.8906 7.15712 12.4128 7.5853 12.7802 8.13466C13.1477 8.68402 13.3438 9.3299 13.3438 9.99062C13.3438 10.8766 12.9915 11.7263 12.3644 12.3528C11.7373 12.9793 10.8868 13.3312 10 13.3312ZM16.5498 4.64811C16.5498 4.89557 16.4763 5.13747 16.3387 5.34322C16.2011 5.54898 16.0055 5.70934 15.7767 5.80404C15.5478 5.89874 15.296 5.92352 15.0531 5.87524C14.8102 5.82696 14.587 5.7078 14.4119 5.53282C14.2367 5.35784 14.1175 5.1349 14.0691 4.8922C14.0208 4.6495 14.0456 4.39793 14.1404 4.1693C14.2352 3.94068 14.3957 3.74528 14.6017 3.6078C14.8076 3.47031 15.0497 3.39693 15.2974 3.39693C15.6296 3.39693 15.9481 3.52875 16.183 3.76339C16.4178 3.99804 16.5498 4.31628 16.5498 4.64811ZM19.9436 5.89928C19.9801 4.34385 19.3993 2.83715 18.3281 1.70785C17.2038 0.623944 15.695 0.0299743 14.1327 0.0563028C12.5047 -0.0187676 7.4953 -0.0187676 5.86725 0.0563028C4.31084 0.0226327 2.80372 0.602441 1.67188 1.67032C0.600668 2.79962 0.0199298 4.30632 0.0563557 5.86174C-0.0187852 7.48827 -0.0187852 12.493 0.0563557 14.1195C0.0199298 15.6749 0.600668 17.1816 1.67188 18.3109C2.80372 19.3788 4.31084 19.9586 5.86725 19.9249C7.52035 20.025 12.4796 20.025 14.1327 19.9249C15.6896 19.9613 17.1978 19.3811 18.3281 18.3109C19.3993 17.1816 19.9801 15.6749 19.9436 14.1195C20.0188 12.493 20.0188 7.48827 19.9436 5.86174V5.89928ZM17.8147 15.9087C17.6446 16.339 17.3879 16.7298 17.0605 17.057C16.733 17.3841 16.3418 17.6406 15.9111 17.8104C13.9669 18.2031 11.9794 18.3378 10 18.2108C8.02474 18.338 6.04133 18.2033 4.10144 17.8104C3.67071 17.6406 3.27949 17.3841 2.95205 17.057C2.6246 16.7298 2.36791 16.339 2.19787 15.9087C1.67188 14.5824 1.7846 11.4545 1.7846 10.0031C1.7846 8.55177 1.67188 5.41132 2.19787 4.09759C2.36311 3.66302 2.61797 3.26802 2.94591 2.93822C3.27386 2.60843 3.66755 2.35123 4.10144 2.1833C6.04133 1.7904 8.02474 1.65577 10 1.78292C11.9794 1.65599 13.9669 1.79061 15.9111 2.1833C16.3418 2.35317 16.733 2.60963 17.0605 2.93677C17.3879 3.26391 17.6446 3.65475 17.8147 4.08508C18.3406 5.41132 18.2154 8.53926 18.2154 9.99062C18.2154 11.442 18.3406 14.5824 17.8147 15.8962V15.9087Z" fill="black"/>
</svg>
