<svg width="32" height="36" viewBox="0 0 32 36" fill="none" xmlns="http://www.w3.org/2000/svg">
<g filter="url(#filter0_d_124_65)">
<path d="M11.4366 2.7825C9.80387 3.24185 8.18226 3.74132 6.57315 4.2805C6.42622 4.32909 6.29561 4.41882 6.19619 4.53949C6.09678 4.66016 6.03257 4.8069 6.01086 4.963C5.06115 12.2378 7.25544 17.5455 9.87315 21.042C10.9815 22.5372 12.303 23.8544 13.7937 24.9497C14.3869 25.3767 14.9114 25.6847 15.3246 25.8825C15.5303 25.9823 15.6983 26.0487 15.8269 26.089C15.8831 26.1091 15.9411 26.1238 16 26.1327C16.0582 26.1231 16.1156 26.1085 16.1714 26.089C16.3017 26.0487 16.4697 25.9823 16.6754 25.8825C17.0869 25.6847 17.6131 25.375 18.2063 24.9497C19.697 23.8544 21.0185 22.5372 22.1269 21.042C24.7446 17.5473 26.9388 12.2378 25.9891 4.963C25.9676 4.80683 25.9035 4.65999 25.804 4.53929C25.7046 4.41859 25.5739 4.32891 25.4268 4.2805C24.3109 3.90775 22.4269 3.3005 20.5634 2.78425C18.6606 2.2575 16.9103 1.86725 16 1.86725C15.0914 1.86725 13.3394 2.2575 11.4366 2.78425V2.7825ZM10.9806 0.98C12.8406 0.46375 14.8171 0 16 0C17.1829 0 19.1594 0.46375 21.0194 0.98C22.9223 1.505 24.8406 2.12625 25.9686 2.5025C26.4402 2.66149 26.8583 2.95306 27.1749 3.34373C27.4915 3.73439 27.6937 4.20829 27.7583 4.711C28.78 12.5458 26.4091 18.3523 23.5326 22.1935C22.3128 23.8367 20.8583 25.2837 19.2177 26.4862C18.6504 26.9024 18.0494 27.2683 17.4211 27.58C16.9411 27.811 16.4251 28 16 28C15.5749 28 15.0606 27.811 14.5789 27.58C13.9506 27.2683 13.3496 26.9024 12.7823 26.4862C11.1418 25.2837 9.68729 23.8367 8.46743 22.1935C5.59086 18.3523 3.22001 12.5458 4.24172 4.711C4.30633 4.20829 4.50854 3.73439 4.82512 3.34373C5.14171 2.95306 5.55982 2.66149 6.03144 2.5025C7.66891 1.95442 9.3191 1.44677 10.9806 0.98Z" fill="#8E0C89"/>
<path d="M18.5714 11.3748C18.5717 11.9179 18.407 12.4477 18.0999 12.8912C17.7929 13.3347 17.3587 13.6701 16.8571 13.8511L17.5171 17.3336C17.5411 17.4603 17.5374 17.5908 17.5062 17.7158C17.475 17.8408 17.4171 17.9573 17.3367 18.0568C17.2563 18.1563 17.1553 18.2364 17.0409 18.2914C16.9266 18.3464 16.8018 18.3749 16.6754 18.3748H15.3246C15.1983 18.3746 15.0737 18.3459 14.9596 18.2908C14.8455 18.2357 14.7447 18.1556 14.6644 18.0561C14.5842 17.9566 14.5264 17.8403 14.4954 17.7154C14.4643 17.5905 14.4606 17.4601 14.4846 17.3336L15.1428 13.8511C14.6984 13.6907 14.3058 13.4087 14.0077 13.0359C13.7097 12.6631 13.5178 12.2138 13.453 11.7372C13.3882 11.2606 13.4529 10.7749 13.6402 10.3334C13.8275 9.89178 14.13 9.51123 14.5148 9.23331C14.8996 8.9554 15.3518 8.7908 15.8221 8.75751C16.2923 8.72422 16.7625 8.82352 17.1812 9.04455C17.5999 9.26559 17.951 9.59985 18.1962 10.0108C18.4414 10.4218 18.5712 10.8937 18.5714 11.3748Z" fill="#8E0C89"/>
</g>
<defs>
<filter id="filter0_d_124_65" x="0" y="0" width="32" height="36" filterUnits="userSpaceOnUse" color-interpolation-filters="sRGB">
<feFlood flood-opacity="0" result="BackgroundImageFix"/>
<feColorMatrix in="SourceAlpha" type="matrix" values="0 0 0 0 0 0 0 0 0 0 0 0 0 0 0 0 0 0 127 0" result="hardAlpha"/>
<feOffset dy="4"/>
<feGaussianBlur stdDeviation="2"/>
<feComposite in2="hardAlpha" operator="out"/>
<feColorMatrix type="matrix" values="0 0 0 0 0 0 0 0 0 0 0 0 0 0 0 0 0 0 0.25 0"/>
<feBlend mode="normal" in2="BackgroundImageFix" result="effect1_dropShadow_124_65"/>
<feBlend mode="normal" in="SourceGraphic" in2="effect1_dropShadow_124_65" result="shape"/>
</filter>
</defs>
</svg>
