<svg width="24" height="15" viewBox="0 0 24 15" fill="none" xmlns="http://www.w3.org/2000/svg">
<path d="M23.904 0.774626C23.7823 0.469336 23.5493 0.226734 23.2562 0.0999516C23.112 0.0359313 22.9571 0.00197403 22.8003 0H16.8021C16.4839 0 16.1788 0.131633 15.9538 0.36594C15.7288 0.600247 15.6024 0.918036 15.6024 1.2494C15.6024 1.58076 15.7288 1.89855 15.9538 2.13285C16.1788 2.36716 16.4839 2.49879 16.8021 2.49879H19.9092L13.2031 9.48292L9.25627 5.35991C9.14475 5.24281 9.01207 5.14986 8.86588 5.08643C8.71969 5.023 8.56289 4.99034 8.40452 4.99034C8.24615 4.99034 8.08935 5.023 7.94316 5.08643C7.79697 5.14986 7.66429 5.24281 7.55277 5.35991L0.354855 12.8563C0.242414 12.9724 0.153166 13.1106 0.0922616 13.2629C0.0313568 13.4151 0 13.5784 0 13.7434C0 13.9083 0.0313568 14.0716 0.0922616 14.2238C0.153166 14.3761 0.242414 14.5143 0.354855 14.6304C0.466378 14.7475 0.599061 14.8405 0.74525 14.9039C0.891439 14.9673 1.04824 15 1.20661 15C1.36498 15 1.52178 14.9673 1.66797 14.9039C1.81415 14.8405 1.94684 14.7475 2.05836 14.6304L8.40452 8.00863L12.3514 12.1316C12.4629 12.2487 12.5956 12.3417 12.7418 12.4051C12.888 12.4686 13.0448 12.5012 13.2031 12.5012C13.3615 12.5012 13.5183 12.4686 13.6645 12.4051C13.8107 12.3417 13.9434 12.2487 14.0549 12.1316L21.6007 4.26044V7.49638C21.6007 7.82774 21.7271 8.14553 21.9521 8.37983C22.177 8.61414 22.4822 8.74577 22.8003 8.74577C23.1185 8.74577 23.4237 8.61414 23.6486 8.37983C23.8736 8.14553 24 7.82774 24 7.49638V1.2494C23.9981 1.08613 23.9655 0.924831 23.904 0.774626Z" fill="#8E0C89"/>
</svg>
