<svg width="25" height="21" viewBox="0 0 25 21" fill="none" xmlns="http://www.w3.org/2000/svg">
<path d="M23.5882 1.0101C22.6306 1.68844 21.5703 2.20726 20.4482 2.54659C19.8459 1.85116 19.0455 1.35826 18.1552 1.13455C17.2649 0.910839 16.3277 0.967112 15.4703 1.29576C14.6129 1.6244 13.8766 2.20957 13.3612 2.9721C12.8457 3.73464 12.5759 4.63776 12.5882 5.55931V6.56355C10.8308 6.60932 9.08947 6.21791 7.5192 5.42419C5.94894 4.63047 4.59851 3.45908 3.5882 2.01434C3.5882 2.01434 -0.411804 11.0525 8.5882 15.0695C6.52872 16.4734 4.07535 17.1773 1.5882 17.078C10.5882 22.0992 21.5882 17.078 21.5882 5.52919C21.5873 5.24946 21.5605 4.97042 21.5082 4.69567C22.5288 3.68489 23.249 2.40872 23.5882 1.0101Z" stroke="black" stroke-width="2" stroke-linecap="round" stroke-linejoin="round"/>
</svg>
