<svg width="1200" height="276" viewBox="0 0 1200 276" fill="none" xmlns="http://www.w3.org/2000/svg">
<g clip-path="url(#clip0_151_13)">
<rect width="1200" height="275.326" rx="8" fill="black" fill-opacity="0.85"/>
<path fill-rule="evenodd" clip-rule="evenodd" d="M70.836 -86.5937C107.559 -73.9595 143.785 -59.4086 168.124 -35.165C196.004 -7.39389 225.821 27.9808 210.911 52.9336C196.325 77.3447 139.422 63.8264 103.728 72.6062C68.7514 81.2094 47.868 116.578 7.44619 102.98C-32.9888 89.3779 -30.3405 49.152 -50.6729 20.6666C-68.7038 -4.59428 -105.327 -27.4102 -103.262 -52.1196C-101.002 -79.1444 -75.0158 -99.8445 -40.0193 -106.774C-6.52951 -113.406 33.3957 -99.4746 70.836 -86.5937Z" fill="white" fill-opacity="0.05"/>
<path fill-rule="evenodd" clip-rule="evenodd" d="M1244.67 157.521C1240.7 196.153 1234.74 234.735 1216.65 263.938C1195.93 297.391 1168.24 334.455 1140.55 325.595C1113.47 316.926 1113.73 258.441 1097.08 225.668C1080.77 193.555 1041.58 181.239 1045.66 138.786C1049.73 96.3199 1089.51 89.7743 1112.64 63.5103C1133.15 40.2192 1147.07 -0.625108 1171.6 -4.21843C1198.43 -8.14847 1224.49 12.4652 1239.18 44.9774C1253.23 76.0898 1248.72 118.134 1244.67 157.521Z" fill="white" fill-opacity="0.03"/>
<path d="M420.667 26.0507C420.676 28.9962 423.071 31.3766 426.017 31.3675C428.962 31.3583 431.342 28.9631 431.333 26.0176C431.324 23.0721 428.929 20.6917 425.983 20.7009C423.038 20.71 420.658 23.1052 420.667 26.0507ZM753.667 25.0166C753.676 27.9621 756.071 30.3425 759.016 30.3333C761.962 30.3242 764.342 27.929 764.333 24.9835C764.324 22.038 761.929 19.6576 758.983 19.6667C756.038 19.6759 753.657 22.0711 753.667 25.0166ZM426.003 27.0342L759.003 26L758.997 24L425.997 25.0342L426.003 27.0342Z" fill="white" fill-opacity="0.3"/>
<path d="M420.667 263.051C420.676 265.996 423.071 268.377 426.017 268.367C428.962 268.358 431.342 265.963 431.333 263.018C431.324 260.072 428.929 257.692 425.983 257.701C423.038 257.71 420.658 260.105 420.667 263.051ZM753.667 262.017C753.676 264.962 756.071 267.342 759.016 267.333C761.962 267.324 764.342 264.929 764.333 261.983C764.324 259.038 761.929 256.658 758.983 256.667C756.038 256.676 753.657 259.071 753.667 262.017ZM426.003 264.034L759.003 263L758.997 261L425.997 262.034L426.003 264.034Z" fill="white" fill-opacity="0.3"/>
<circle cy="257" r="25" fill="#8E0C89" fill-opacity="0.02"/>
<circle cx="308.5" cy="67.5" r="12.5" fill="#8E0C89" fill-opacity="0.03"/>
<circle cx="257.5" cy="231.5" r="12.5" fill="#8E0C89" fill-opacity="0.04"/>
<circle cx="1095.5" cy="256.5" r="12.5" fill="#8E0C89" fill-opacity="0.04"/>
<circle cx="533.5" cy="143.5" r="7.5" fill="#8E0C89" fill-opacity="0.03"/>
<circle cx="25.5" cy="151.5" r="7.5" fill="#8E0C89" fill-opacity="0.04"/>
<circle cx="585.5" cy="50.5" r="7.5" fill="#8E0C89" fill-opacity="0.04"/>
<circle cx="1103.5" cy="87.5" r="7.5" fill="#8E0C89" fill-opacity="0.04"/>
<circle cx="197.5" cy="62.5" r="7.5" fill="#8E0C89" fill-opacity="0.05"/>
<circle cx="75.5" cy="32.5" r="7.5" fill="#8E0C89" fill-opacity="0.05"/>
<circle cx="861.5" cy="55.5" r="12.5" fill="#8E0C89" fill-opacity="0.04"/>
<circle cx="876.5" cy="231.5" r="12.5" fill="#8E0C89" fill-opacity="0.03"/>
<circle cx="1011.5" cy="37.5" r="12.5" fill="#8E0C89" fill-opacity="0.04"/>
<circle cx="578.5" cy="251.5" r="7.5" fill="#8E0C89" fill-opacity="0.04"/>
</g>
<defs>
<clipPath id="clip0_151_13">
<rect width="1200" height="275.326" rx="8" fill="white"/>
</clipPath>
</defs>
</svg>
